# xmcd
#
# Track frame offsets: 
#        182
#        17117
#        33062
#        55827
#        75167
#        96740
#        115075
#        131272
#        153517
#        171962
#
# Disc length: 2535 seconds
#
# Revision: 24
# Processed by: cddbd v1.5.2PL0 Copyright (c) Steve Scherf et al.
# Submitted via: ExactAudioCopyFreeDBPlugin 1.0
#
DISCID=7109e50a
DTITLE=Bee Gees - Greatest [CD1]
DYEAR=1979
DGENRE=Pop
TTITLE0=Jive Talkin
TTITLE1=Night Fever
TTITLE2=Tragedy
TTITLE3=You Should Be Dancing
TTITLE4=Stayin Alive
TTITLE5=How Deep Is Your Love
TTITLE6=Love So Right
TTITLE7=Too Much Heaven
TTITLE8=(Our Love) Dont Throw It All Away [New Song]
TTITLE9=Fanny (Be Tender With My Love)
EXTD=by Diddl
EXTT0=
EXTT1=
EXTT2=
EXTT3=
EXTT4=
EXTT5=
EXTT6=
EXTT7=
EXTT8=
EXTT9=
PLAYORDER=
